iMDB.............: http://www.imdb.com/title/tt1477076/

Video Source.....: ours
Audio Source.....: ours
Subtitles........: hardcoded spanish

General
Complete name : Saw.3D.CAM.Subs.720p.XviD-F!asH.avi
Format : AVI
Format/Info : Audio Video Interleave
File size : 1.89 GiB
Duration : 1h 24mn
Overall bit rate : 3 201 Kbps
Writing application : VirtualDubMod 1.5.10.2 (build 2542/release)
Writing library : VirtualDubMod build 2542/release

Video
ID : 0
Format : MPEG-4 Visual
Format profile : Advanced Simple@L5
Format settings, BVOP : Yes
Format settings, QPel : No
Format settings, GMC : No warppoints
Format settings, Matrix : Default (H.263)
Muxing mode : Packed bitstream
Codec ID : XVID
Codec ID/Hint : XviD
Duration : 1h 24mn
Bit rate : 2 997 Kbps
Width : 1 280 pixels
Height : 720 pixels
Display aspect ratio : 16:9
Frame rate : 30.000 fps
Color space : YUV
Chroma subsampling : 4:2:0
Bit depth : 8 bits
Scan type : Progressive
Bits/(Pixel*Frame) : 0.108
Stream size : 1.77 GiB (94%)
Writing library : XviD 1.1.2 (UTC 2006-11-01)

Audio
ID : 1
Format : AC-3
Format/Info : Audio Coding 3
Mode extension : CM (complete main)
Codec ID : 2000
Duration : 1h 24mn
Bit rate mode : Constant
Bit rate : 192 Kbps
Channel(s) : 2 channels
Channel positions : Front: L R
Sampling rate : 48.0 KHz
Bit depth : 16 bits
Stream size : 116 MiB (6%)
Alignment : Split accross interleaves
Interleave, duration : 33 ms (1.00 video frame)
Interleave, preload duration : 500 ms

Greets:

FUSiON, ELEKTRI4KA, PRiSM, IMAGiNE 
 
http://img180.imageshack.us/img180/9522/saw720pscreen1.jpg 
http://img151.imageshack.us/img151/8929/saw720pscreen2.jpg 
http://img263.imageshack.us/img263/4329/saw720pscreen3.jpg



